<mxfile host="app.diagrams.net" modified="2021-09-29T14:35:34.809Z" agent="5.0 (Windows NT 10.0; Win64; x64) AppleWebKit/537.36 (KHTML, like Gecko) Chrome/94.0.4606.61 Safari/537.36" etag="rGdjsUs6TgzlYWLtm_1s" version="15.3.8" type="github">
  <diagram id="prtHgNgQTEPvFCAcTncT" name="Page-1">
    <mxGraphModel dx="1422" dy="1874" grid="1" gridSize="10" guides="1" tooltips="1" connect="1" arrows="1" fold="1" page="1" pageScale="1" pageWidth="827" pageHeight="1169" math="0" shadow="0">
      <root>
        <mxCell id="0" />
        <mxCell id="1" parent="0" />
        <mxCell id="2TjgyCzb8Htl5xwf5OyU-55" value="" style="rounded=0;html=1;strokeColor=none;fillColor=#d0cee2;whiteSpace=wrap;" parent="1" vertex="1">
          <mxGeometry x="95" y="100" width="170" height="430" as="geometry" />
        </mxCell>
        <mxCell id="2TjgyCzb8Htl5xwf5OyU-54" value="" style="rounded=0;whiteSpace=wrap;html=1;strokeColor=none;fillColor=#b1ddf0;" parent="1" vertex="1">
          <mxGeometry x="295" y="-20" width="170" height="640" as="geometry" />
        </mxCell>
        <mxCell id="2TjgyCzb8Htl5xwf5OyU-53" value="" style="rounded=0;whiteSpace=wrap;html=1;fillColor=#fad7ac;strokeColor=none;" parent="1" vertex="1">
          <mxGeometry x="875" y="90" width="170" height="480" as="geometry" />
        </mxCell>
        <mxCell id="2TjgyCzb8Htl5xwf5OyU-52" value="" style="rounded=0;whiteSpace=wrap;html=1;fillColor=#bac8d3;strokeColor=none;" parent="1" vertex="1">
          <mxGeometry x="682" y="90" width="170" height="480" as="geometry" />
        </mxCell>
        <mxCell id="2TjgyCzb8Htl5xwf5OyU-50" value="" style="rounded=0;whiteSpace=wrap;html=1;strokeColor=none;fillColor=#fad9d5;" parent="1" vertex="1">
          <mxGeometry x="490" y="90" width="170" height="480" as="geometry" />
        </mxCell>
        <mxCell id="O-F3Ail7RcBTmuWhiVfL-2" value="Shared Intellectual Assets" style="rounded=1;whiteSpace=wrap;html=1;fillColor=#e1d5e7;strokeColor=#9673a6;" parent="1" vertex="1">
          <mxGeometry x="120" y="320" width="120" height="60" as="geometry" />
        </mxCell>
        <mxCell id="2TjgyCzb8Htl5xwf5OyU-14" style="edgeStyle=orthogonalEdgeStyle;rounded=0;orthogonalLoop=1;jettySize=auto;html=1;exitX=0.5;exitY=1;exitDx=0;exitDy=0;entryX=0.5;entryY=0;entryDx=0;entryDy=0;" parent="1" source="O-F3Ail7RcBTmuWhiVfL-3" target="O-F3Ail7RcBTmuWhiVfL-4" edge="1">
          <mxGeometry relative="1" as="geometry" />
        </mxCell>
        <mxCell id="2TjgyCzb8Htl5xwf5OyU-15" style="edgeStyle=orthogonalEdgeStyle;rounded=0;orthogonalLoop=1;jettySize=auto;html=1;exitX=0.5;exitY=0;exitDx=0;exitDy=0;entryX=0.5;entryY=1;entryDx=0;entryDy=0;" parent="1" source="O-F3Ail7RcBTmuWhiVfL-3" target="O-F3Ail7RcBTmuWhiVfL-5" edge="1">
          <mxGeometry relative="1" as="geometry" />
        </mxCell>
        <mxCell id="2TjgyCzb8Htl5xwf5OyU-57" style="edgeStyle=orthogonalEdgeStyle;rounded=1;orthogonalLoop=1;jettySize=auto;html=1;exitX=0;exitY=0.5;exitDx=0;exitDy=0;strokeColor=default;entryX=1;entryY=0.75;entryDx=0;entryDy=0;" parent="1" source="O-F3Ail7RcBTmuWhiVfL-3" target="O-F3Ail7RcBTmuWhiVfL-14" edge="1">
          <mxGeometry relative="1" as="geometry">
            <mxPoint x="270" y="510" as="targetPoint" />
          </mxGeometry>
        </mxCell>
        <mxCell id="O-F3Ail7RcBTmuWhiVfL-3" value="FireBIM ontology" style="rounded=1;whiteSpace=wrap;html=1;fillColor=#dae8fc;strokeColor=#6c8ebf;strokeWidth=3;" parent="1" vertex="1">
          <mxGeometry x="320" y="460" width="120" height="60" as="geometry" />
        </mxCell>
        <mxCell id="2TjgyCzb8Htl5xwf5OyU-13" style="edgeStyle=orthogonalEdgeStyle;rounded=1;orthogonalLoop=1;jettySize=auto;html=1;exitX=0;exitY=0.5;exitDx=0;exitDy=0;entryX=0.5;entryY=1;entryDx=0;entryDy=0;" parent="1" source="O-F3Ail7RcBTmuWhiVfL-4" target="O-F3Ail7RcBTmuWhiVfL-14" edge="1">
          <mxGeometry relative="1" as="geometry" />
        </mxCell>
        <mxCell id="O-F3Ail7RcBTmuWhiVfL-4" value="FireBIM exchange format" style="rounded=1;whiteSpace=wrap;html=1;fillColor=#dae8fc;strokeColor=#6c8ebf;strokeWidth=3;" parent="1" vertex="1">
          <mxGeometry x="320" y="540" width="120" height="60" as="geometry" />
        </mxCell>
        <mxCell id="2TjgyCzb8Htl5xwf5OyU-10" style="edgeStyle=orthogonalEdgeStyle;rounded=1;orthogonalLoop=1;jettySize=auto;html=1;exitX=0;exitY=0.5;exitDx=0;exitDy=0;entryX=1;entryY=0.5;entryDx=0;entryDy=0;" parent="1" source="O-F3Ail7RcBTmuWhiVfL-5" target="O-F3Ail7RcBTmuWhiVfL-14" edge="1">
          <mxGeometry relative="1" as="geometry">
            <Array as="points">
              <mxPoint x="290" y="410" />
              <mxPoint x="290" y="450" />
            </Array>
          </mxGeometry>
        </mxCell>
        <mxCell id="2TjgyCzb8Htl5xwf5OyU-11" style="edgeStyle=orthogonalEdgeStyle;rounded=1;orthogonalLoop=1;jettySize=auto;html=1;exitX=0;exitY=0.25;exitDx=0;exitDy=0;entryX=1.008;entryY=0.9;entryDx=0;entryDy=0;entryPerimeter=0;" parent="1" source="O-F3Ail7RcBTmuWhiVfL-5" target="O-F3Ail7RcBTmuWhiVfL-2" edge="1">
          <mxGeometry relative="1" as="geometry">
            <Array as="points">
              <mxPoint x="290" y="395" />
              <mxPoint x="290" y="374" />
            </Array>
          </mxGeometry>
        </mxCell>
        <mxCell id="2TjgyCzb8Htl5xwf5OyU-16" style="edgeStyle=orthogonalEdgeStyle;rounded=0;orthogonalLoop=1;jettySize=auto;html=1;exitX=0.5;exitY=0;exitDx=0;exitDy=0;entryX=0.5;entryY=1;entryDx=0;entryDy=0;" parent="1" source="O-F3Ail7RcBTmuWhiVfL-5" target="O-F3Ail7RcBTmuWhiVfL-6" edge="1">
          <mxGeometry relative="1" as="geometry" />
        </mxCell>
        <mxCell id="O-F3Ail7RcBTmuWhiVfL-5" value="FireBIM server" style="rounded=1;whiteSpace=wrap;html=1;fillColor=#dae8fc;strokeColor=#6c8ebf;strokeWidth=3;" parent="1" vertex="1">
          <mxGeometry x="320" y="380" width="120" height="60" as="geometry" />
        </mxCell>
        <mxCell id="2TjgyCzb8Htl5xwf5OyU-8" style="edgeStyle=orthogonalEdgeStyle;rounded=1;orthogonalLoop=1;jettySize=auto;html=1;exitX=0;exitY=0.5;exitDx=0;exitDy=0;dashed=1;" parent="1" source="O-F3Ail7RcBTmuWhiVfL-6" edge="1">
          <mxGeometry relative="1" as="geometry">
            <mxPoint x="240" y="359" as="targetPoint" />
            <Array as="points">
              <mxPoint x="300" y="330" />
              <mxPoint x="300" y="359" />
            </Array>
          </mxGeometry>
        </mxCell>
        <mxCell id="2TjgyCzb8Htl5xwf5OyU-9" style="edgeStyle=orthogonalEdgeStyle;rounded=1;orthogonalLoop=1;jettySize=auto;html=1;exitX=0;exitY=0.75;exitDx=0;exitDy=0;entryX=1;entryY=0.25;entryDx=0;entryDy=0;strokeColor=default;" parent="1" source="O-F3Ail7RcBTmuWhiVfL-6" target="O-F3Ail7RcBTmuWhiVfL-14" edge="1">
          <mxGeometry relative="1" as="geometry">
            <Array as="points">
              <mxPoint x="310" y="345" />
              <mxPoint x="310" y="435" />
            </Array>
          </mxGeometry>
        </mxCell>
        <mxCell id="2TjgyCzb8Htl5xwf5OyU-17" style="edgeStyle=orthogonalEdgeStyle;rounded=0;orthogonalLoop=1;jettySize=auto;html=1;exitX=0.5;exitY=0;exitDx=0;exitDy=0;entryX=0.5;entryY=1;entryDx=0;entryDy=0;" parent="1" source="O-F3Ail7RcBTmuWhiVfL-6" target="O-F3Ail7RcBTmuWhiVfL-7" edge="1">
          <mxGeometry relative="1" as="geometry" />
        </mxCell>
        <mxCell id="2TjgyCzb8Htl5xwf5OyU-21" style="edgeStyle=orthogonalEdgeStyle;rounded=1;orthogonalLoop=1;jettySize=auto;html=1;exitX=1;exitY=0.25;exitDx=0;exitDy=0;entryX=1;entryY=0.5;entryDx=0;entryDy=0;dashed=1;" parent="1" source="O-F3Ail7RcBTmuWhiVfL-6" target="O-F3Ail7RcBTmuWhiVfL-8" edge="1">
          <mxGeometry relative="1" as="geometry" />
        </mxCell>
        <mxCell id="2TjgyCzb8Htl5xwf5OyU-22" style="edgeStyle=orthogonalEdgeStyle;rounded=1;orthogonalLoop=1;jettySize=auto;html=1;exitX=1;exitY=0.75;exitDx=0;exitDy=0;entryX=1;entryY=0.5;entryDx=0;entryDy=0;dashed=1;" parent="1" source="O-F3Ail7RcBTmuWhiVfL-6" target="O-F3Ail7RcBTmuWhiVfL-9" edge="1">
          <mxGeometry relative="1" as="geometry">
            <Array as="points">
              <mxPoint x="470" y="345" />
              <mxPoint x="470" y="90" />
            </Array>
          </mxGeometry>
        </mxCell>
        <mxCell id="2TjgyCzb8Htl5xwf5OyU-46" style="edgeStyle=orthogonalEdgeStyle;rounded=0;orthogonalLoop=1;jettySize=auto;html=1;exitX=1;exitY=0.5;exitDx=0;exitDy=0;entryX=0;entryY=0.75;entryDx=0;entryDy=0;dashed=1;" parent="1" source="O-F3Ail7RcBTmuWhiVfL-6" target="O-F3Ail7RcBTmuWhiVfL-11" edge="1">
          <mxGeometry relative="1" as="geometry">
            <Array as="points">
              <mxPoint x="440" y="335" />
            </Array>
          </mxGeometry>
        </mxCell>
        <mxCell id="2TjgyCzb8Htl5xwf5OyU-59" style="edgeStyle=orthogonalEdgeStyle;rounded=1;orthogonalLoop=1;jettySize=auto;html=1;exitX=0;exitY=0.25;exitDx=0;exitDy=0;strokeColor=default;entryX=1.008;entryY=0.883;entryDx=0;entryDy=0;entryPerimeter=0;dashed=1;" parent="1" source="O-F3Ail7RcBTmuWhiVfL-6" target="O-F3Ail7RcBTmuWhiVfL-15" edge="1">
          <mxGeometry relative="1" as="geometry" />
        </mxCell>
        <mxCell id="O-F3Ail7RcBTmuWhiVfL-6" value="FireBIM Web service" style="rounded=1;whiteSpace=wrap;html=1;fillColor=#dae8fc;strokeColor=#6c8ebf;strokeWidth=3;" parent="1" vertex="1">
          <mxGeometry x="320" y="300" width="120" height="60" as="geometry" />
        </mxCell>
        <mxCell id="2TjgyCzb8Htl5xwf5OyU-6" style="edgeStyle=orthogonalEdgeStyle;rounded=0;orthogonalLoop=1;jettySize=auto;html=1;exitX=0;exitY=0.5;exitDx=0;exitDy=0;dashed=1;" parent="1" source="O-F3Ail7RcBTmuWhiVfL-7" edge="1">
          <mxGeometry relative="1" as="geometry">
            <mxPoint x="230" y="250" as="targetPoint" />
          </mxGeometry>
        </mxCell>
        <mxCell id="2TjgyCzb8Htl5xwf5OyU-45" style="edgeStyle=orthogonalEdgeStyle;rounded=1;orthogonalLoop=1;jettySize=auto;html=1;exitX=1;exitY=0.5;exitDx=0;exitDy=0;entryX=0;entryY=0.5;entryDx=0;entryDy=0;dashed=1;" parent="1" source="O-F3Ail7RcBTmuWhiVfL-7" target="O-F3Ail7RcBTmuWhiVfL-11" edge="1">
          <mxGeometry relative="1" as="geometry">
            <Array as="points">
              <mxPoint x="450" y="250" />
              <mxPoint x="450" y="320" />
            </Array>
          </mxGeometry>
        </mxCell>
        <mxCell id="O-F3Ail7RcBTmuWhiVfL-7" value="FireBIM Mobile App service" style="rounded=1;whiteSpace=wrap;html=1;fillColor=#dae8fc;strokeColor=#6c8ebf;strokeWidth=2;dashed=1;" parent="1" vertex="1">
          <mxGeometry x="320" y="220" width="120" height="60" as="geometry" />
        </mxCell>
        <mxCell id="2TjgyCzb8Htl5xwf5OyU-5" style="edgeStyle=orthogonalEdgeStyle;rounded=1;orthogonalLoop=1;jettySize=auto;html=1;exitX=0;exitY=0.5;exitDx=0;exitDy=0;entryX=1;entryY=0.5;entryDx=0;entryDy=0;dashed=1;" parent="1" source="O-F3Ail7RcBTmuWhiVfL-8" target="O-F3Ail7RcBTmuWhiVfL-15" edge="1">
          <mxGeometry relative="1" as="geometry">
            <Array as="points">
              <mxPoint x="300" y="170" />
              <mxPoint x="300" y="240" />
            </Array>
          </mxGeometry>
        </mxCell>
        <mxCell id="2TjgyCzb8Htl5xwf5OyU-19" style="edgeStyle=orthogonalEdgeStyle;rounded=0;orthogonalLoop=1;jettySize=auto;html=1;exitX=0.5;exitY=0;exitDx=0;exitDy=0;" parent="1" source="O-F3Ail7RcBTmuWhiVfL-8" target="O-F3Ail7RcBTmuWhiVfL-9" edge="1">
          <mxGeometry relative="1" as="geometry" />
        </mxCell>
        <mxCell id="2TjgyCzb8Htl5xwf5OyU-44" style="edgeStyle=orthogonalEdgeStyle;rounded=1;orthogonalLoop=1;jettySize=auto;html=1;exitX=1;exitY=0.75;exitDx=0;exitDy=0;entryX=0;entryY=0.25;entryDx=0;entryDy=0;dashed=1;" parent="1" source="O-F3Ail7RcBTmuWhiVfL-8" target="O-F3Ail7RcBTmuWhiVfL-11" edge="1">
          <mxGeometry relative="1" as="geometry" />
        </mxCell>
        <mxCell id="O-F3Ail7RcBTmuWhiVfL-8" value="FireBIM Archicad/Revit-integration" style="rounded=1;whiteSpace=wrap;html=1;fillColor=#dae8fc;strokeColor=#6c8ebf;strokeWidth=2;dashed=1;" parent="1" vertex="1">
          <mxGeometry x="320" y="140" width="120" height="60" as="geometry" />
        </mxCell>
        <mxCell id="2TjgyCzb8Htl5xwf5OyU-1" style="edgeStyle=orthogonalEdgeStyle;rounded=1;orthogonalLoop=1;jettySize=auto;html=1;exitX=0;exitY=0.25;exitDx=0;exitDy=0;entryX=1;entryY=0.25;entryDx=0;entryDy=0;dashed=1;" parent="1" source="O-F3Ail7RcBTmuWhiVfL-9" target="O-F3Ail7RcBTmuWhiVfL-15" edge="1">
          <mxGeometry relative="1" as="geometry" />
        </mxCell>
        <mxCell id="2TjgyCzb8Htl5xwf5OyU-2" style="edgeStyle=orthogonalEdgeStyle;rounded=1;orthogonalLoop=1;jettySize=auto;html=1;exitX=0;exitY=0.75;exitDx=0;exitDy=0;entryX=0.992;entryY=0.367;entryDx=0;entryDy=0;entryPerimeter=0;dashed=1;" parent="1" source="O-F3Ail7RcBTmuWhiVfL-9" target="O-F3Ail7RcBTmuWhiVfL-2" edge="1">
          <mxGeometry relative="1" as="geometry">
            <Array as="points">
              <mxPoint x="290" y="105" />
              <mxPoint x="290" y="342" />
            </Array>
          </mxGeometry>
        </mxCell>
        <mxCell id="2TjgyCzb8Htl5xwf5OyU-37" style="edgeStyle=orthogonalEdgeStyle;rounded=1;orthogonalLoop=1;jettySize=auto;html=1;exitX=1;exitY=0.75;exitDx=0;exitDy=0;entryX=0;entryY=0.25;entryDx=0;entryDy=0;dashed=1;" parent="1" source="O-F3Ail7RcBTmuWhiVfL-9" target="O-F3Ail7RcBTmuWhiVfL-16" edge="1">
          <mxGeometry relative="1" as="geometry">
            <Array as="points">
              <mxPoint x="480" y="105" />
              <mxPoint x="480" y="215" />
            </Array>
          </mxGeometry>
        </mxCell>
        <mxCell id="O-F3Ail7RcBTmuWhiVfL-9" value="FireBIM 3rd party integrations" style="rounded=1;whiteSpace=wrap;html=1;fillColor=#dae8fc;strokeColor=#6c8ebf;strokeWidth=2;dashed=1;" parent="1" vertex="1">
          <mxGeometry x="320" y="60" width="120" height="60" as="geometry" />
        </mxCell>
        <mxCell id="O-F3Ail7RcBTmuWhiVfL-10" value="Operation &amp;amp; services" style="rounded=1;whiteSpace=wrap;html=1;arcSize=50;fillColor=none;strokeColor=none;fontStyle=1;fontSize=15;" parent="1" vertex="1">
          <mxGeometry x="510" y="130" width="120" height="30" as="geometry" />
        </mxCell>
        <mxCell id="2TjgyCzb8Htl5xwf5OyU-39" style="edgeStyle=orthogonalEdgeStyle;rounded=1;orthogonalLoop=1;jettySize=auto;html=1;exitX=1;exitY=0.5;exitDx=0;exitDy=0;entryX=0;entryY=0.25;entryDx=0;entryDy=0;dashed=1;" parent="1" source="O-F3Ail7RcBTmuWhiVfL-11" target="O-F3Ail7RcBTmuWhiVfL-28" edge="1">
          <mxGeometry relative="1" as="geometry">
            <Array as="points">
              <mxPoint x="650" y="320" />
              <mxPoint x="650" y="280" />
              <mxPoint x="830" y="280" />
              <mxPoint x="830" y="305" />
            </Array>
          </mxGeometry>
        </mxCell>
        <mxCell id="2TjgyCzb8Htl5xwf5OyU-48" style="edgeStyle=orthogonalEdgeStyle;rounded=0;orthogonalLoop=1;jettySize=auto;html=1;exitX=0.5;exitY=0;exitDx=0;exitDy=0;entryX=0.5;entryY=1;entryDx=0;entryDy=0;dashed=1;" parent="1" source="O-F3Ail7RcBTmuWhiVfL-11" target="O-F3Ail7RcBTmuWhiVfL-16" edge="1">
          <mxGeometry relative="1" as="geometry" />
        </mxCell>
        <mxCell id="O-F3Ail7RcBTmuWhiVfL-11" value="Fire Consulting" style="rounded=1;whiteSpace=wrap;html=1;fillColor=#ffe6cc;strokeColor=#d79b00;" parent="1" vertex="1">
          <mxGeometry x="510" y="290" width="120" height="60" as="geometry" />
        </mxCell>
        <mxCell id="2TjgyCzb8Htl5xwf5OyU-60" style="edgeStyle=orthogonalEdgeStyle;rounded=1;jumpStyle=none;orthogonalLoop=1;jettySize=auto;html=1;exitX=0;exitY=0.25;exitDx=0;exitDy=0;entryX=1;entryY=0.25;entryDx=0;entryDy=0;dashed=1;strokeColor=default;strokeWidth=1;" parent="1" source="O-F3Ail7RcBTmuWhiVfL-12" target="O-F3Ail7RcBTmuWhiVfL-5" edge="1">
          <mxGeometry relative="1" as="geometry" />
        </mxCell>
        <mxCell id="2TjgyCzb8Htl5xwf5OyU-61" style="edgeStyle=orthogonalEdgeStyle;rounded=1;jumpStyle=none;orthogonalLoop=1;jettySize=auto;html=1;exitX=0;exitY=0.75;exitDx=0;exitDy=0;entryX=0.853;entryY=0.695;entryDx=0;entryDy=0;entryPerimeter=0;strokeColor=default;strokeWidth=1;" parent="1" source="O-F3Ail7RcBTmuWhiVfL-12" target="2TjgyCzb8Htl5xwf5OyU-54" edge="1">
          <mxGeometry relative="1" as="geometry" />
        </mxCell>
        <mxCell id="O-F3Ail7RcBTmuWhiVfL-12" value="Platform &amp;amp; service tasks" style="rounded=1;whiteSpace=wrap;html=1;fillColor=#ffe6cc;strokeColor=#d79b00;" parent="1" vertex="1">
          <mxGeometry x="510" y="380" width="120" height="60" as="geometry" />
        </mxCell>
        <mxCell id="2TjgyCzb8Htl5xwf5OyU-23" style="edgeStyle=orthogonalEdgeStyle;rounded=1;orthogonalLoop=1;jettySize=auto;html=1;exitX=0;exitY=0.75;exitDx=0;exitDy=0;entryX=1;entryY=0.5;entryDx=0;entryDy=0;jumpStyle=none;" parent="1" source="O-F3Ail7RcBTmuWhiVfL-13" target="O-F3Ail7RcBTmuWhiVfL-4" edge="1">
          <mxGeometry relative="1" as="geometry" />
        </mxCell>
        <mxCell id="2TjgyCzb8Htl5xwf5OyU-24" style="edgeStyle=orthogonalEdgeStyle;rounded=1;orthogonalLoop=1;jettySize=auto;html=1;exitX=0;exitY=0.25;exitDx=0;exitDy=0;entryX=1;entryY=0.5;entryDx=0;entryDy=0;" parent="1" source="O-F3Ail7RcBTmuWhiVfL-13" target="O-F3Ail7RcBTmuWhiVfL-3" edge="1">
          <mxGeometry relative="1" as="geometry">
            <Array as="points">
              <mxPoint x="510" y="490" />
            </Array>
          </mxGeometry>
        </mxCell>
        <mxCell id="O-F3Ail7RcBTmuWhiVfL-13" value="Fire code compliance &amp;amp; maintaince" style="rounded=1;whiteSpace=wrap;html=1;fillColor=#ffe6cc;strokeColor=#d79b00;strokeWidth=3;" parent="1" vertex="1">
          <mxGeometry x="510" y="470" width="120" height="60" as="geometry" />
        </mxCell>
        <mxCell id="O-F3Ail7RcBTmuWhiVfL-14" value="Open Source Intellectual Assets" style="rounded=1;whiteSpace=wrap;html=1;fillColor=#e1d5e7;strokeColor=#9673a6;" parent="1" vertex="1">
          <mxGeometry x="120" y="420" width="120" height="60" as="geometry" />
        </mxCell>
        <mxCell id="O-F3Ail7RcBTmuWhiVfL-15" value="Proprietary Intellectual Assets" style="rounded=1;whiteSpace=wrap;html=1;fillColor=#e1d5e7;strokeColor=#9673a6;" parent="1" vertex="1">
          <mxGeometry x="120" y="210" width="120" height="60" as="geometry" />
        </mxCell>
        <mxCell id="2TjgyCzb8Htl5xwf5OyU-38" style="edgeStyle=orthogonalEdgeStyle;rounded=1;orthogonalLoop=1;jettySize=auto;html=1;exitX=1;exitY=0.5;exitDx=0;exitDy=0;entryX=0;entryY=0.75;entryDx=0;entryDy=0;dashed=1;" parent="1" source="O-F3Ail7RcBTmuWhiVfL-16" target="O-F3Ail7RcBTmuWhiVfL-28" edge="1">
          <mxGeometry relative="1" as="geometry">
            <Array as="points">
              <mxPoint x="670" y="230" />
              <mxPoint x="670" y="270" />
              <mxPoint x="880" y="270" />
              <mxPoint x="880" y="335" />
            </Array>
          </mxGeometry>
        </mxCell>
        <mxCell id="O-F3Ail7RcBTmuWhiVfL-16" value="Fire simulation&lt;br&gt;(High Fire Expertise)" style="rounded=1;whiteSpace=wrap;html=1;fillColor=#ffe6cc;strokeColor=#d79b00;" parent="1" vertex="1">
          <mxGeometry x="510" y="200" width="120" height="60" as="geometry" />
        </mxCell>
        <mxCell id="O-F3Ail7RcBTmuWhiVfL-19" value="Software" style="rounded=1;whiteSpace=wrap;html=1;arcSize=50;fillColor=none;strokeColor=none;fontStyle=1;fontSize=15;" parent="1" vertex="1">
          <mxGeometry x="320" y="10" width="120" height="30" as="geometry" />
        </mxCell>
        <mxCell id="O-F3Ail7RcBTmuWhiVfL-21" value="IP, Rights &amp;amp; Patens" style="rounded=1;whiteSpace=wrap;html=1;arcSize=50;fillColor=none;strokeColor=none;fontStyle=1;fontSize=15;" parent="1" vertex="1">
          <mxGeometry x="120" y="140" width="120" height="30" as="geometry" />
        </mxCell>
        <mxCell id="2TjgyCzb8Htl5xwf5OyU-34" style="edgeStyle=orthogonalEdgeStyle;rounded=1;orthogonalLoop=1;jettySize=auto;html=1;strokeWidth=1;startArrow=none;startFill=0;exitX=0.5;exitY=0;exitDx=0;exitDy=0;" parent="1" source="2TjgyCzb8Htl5xwf5OyU-52" edge="1">
          <mxGeometry relative="1" as="geometry">
            <mxPoint x="767" y="60" as="targetPoint" />
            <mxPoint x="767" y="80" as="sourcePoint" />
          </mxGeometry>
        </mxCell>
        <mxCell id="O-F3Ail7RcBTmuWhiVfL-22" value="Regulation, Certification, Authorities" style="rounded=1;whiteSpace=wrap;html=1;arcSize=50;fillColor=none;strokeColor=none;fontStyle=1;fontSize=15;" parent="1" vertex="1">
          <mxGeometry x="707" y="120" width="120" height="50" as="geometry" />
        </mxCell>
        <mxCell id="2TjgyCzb8Htl5xwf5OyU-29" style="edgeStyle=orthogonalEdgeStyle;rounded=1;orthogonalLoop=1;jettySize=auto;html=1;exitX=0;exitY=0.5;exitDx=0;exitDy=0;entryX=1;entryY=0.5;entryDx=0;entryDy=0;" parent="1" source="O-F3Ail7RcBTmuWhiVfL-23" target="O-F3Ail7RcBTmuWhiVfL-13" edge="1">
          <mxGeometry relative="1" as="geometry" />
        </mxCell>
        <mxCell id="2TjgyCzb8Htl5xwf5OyU-31" style="edgeStyle=orthogonalEdgeStyle;rounded=0;orthogonalLoop=1;jettySize=auto;html=1;exitX=1;exitY=0.5;exitDx=0;exitDy=0;" parent="1" source="O-F3Ail7RcBTmuWhiVfL-23" target="O-F3Ail7RcBTmuWhiVfL-28" edge="1">
          <mxGeometry relative="1" as="geometry" />
        </mxCell>
        <mxCell id="O-F3Ail7RcBTmuWhiVfL-23" value="International Fire Regulations" style="rounded=1;whiteSpace=wrap;html=1;fillColor=#d5e8d4;strokeColor=#82b366;strokeWidth=3;" parent="1" vertex="1">
          <mxGeometry x="707" y="290" width="120" height="60" as="geometry" />
        </mxCell>
        <mxCell id="2TjgyCzb8Htl5xwf5OyU-27" style="edgeStyle=orthogonalEdgeStyle;rounded=0;orthogonalLoop=1;jettySize=auto;html=1;exitX=0.5;exitY=1;exitDx=0;exitDy=0;entryX=0.5;entryY=0;entryDx=0;entryDy=0;" parent="1" source="O-F3Ail7RcBTmuWhiVfL-24" target="O-F3Ail7RcBTmuWhiVfL-25" edge="1">
          <mxGeometry relative="1" as="geometry" />
        </mxCell>
        <mxCell id="O-F3Ail7RcBTmuWhiVfL-24" value="National BIM standards" style="rounded=1;whiteSpace=wrap;html=1;fillColor=#d5e8d4;strokeColor=#82b366;strokeWidth=3;" parent="1" vertex="1">
          <mxGeometry x="707" y="380" width="120" height="60" as="geometry" />
        </mxCell>
        <mxCell id="2TjgyCzb8Htl5xwf5OyU-25" style="edgeStyle=orthogonalEdgeStyle;rounded=1;orthogonalLoop=1;jettySize=auto;html=1;exitX=0;exitY=0.75;exitDx=0;exitDy=0;entryX=1;entryY=0.75;entryDx=0;entryDy=0;" parent="1" source="O-F3Ail7RcBTmuWhiVfL-25" target="O-F3Ail7RcBTmuWhiVfL-4" edge="1">
          <mxGeometry relative="1" as="geometry">
            <Array as="points">
              <mxPoint x="660" y="515" />
              <mxPoint x="660" y="585" />
            </Array>
          </mxGeometry>
        </mxCell>
        <mxCell id="2TjgyCzb8Htl5xwf5OyU-26" style="edgeStyle=orthogonalEdgeStyle;rounded=1;orthogonalLoop=1;jettySize=auto;html=1;exitX=0;exitY=0.25;exitDx=0;exitDy=0;entryX=1;entryY=0.25;entryDx=0;entryDy=0;" parent="1" source="O-F3Ail7RcBTmuWhiVfL-25" target="O-F3Ail7RcBTmuWhiVfL-3" edge="1">
          <mxGeometry relative="1" as="geometry">
            <Array as="points">
              <mxPoint x="650" y="485" />
              <mxPoint x="650" y="460" />
              <mxPoint x="480" y="460" />
              <mxPoint x="480" y="475" />
            </Array>
          </mxGeometry>
        </mxCell>
        <mxCell id="O-F3Ail7RcBTmuWhiVfL-25" value="International BIM standards" style="rounded=1;whiteSpace=wrap;html=1;fillColor=#d5e8d4;strokeColor=#82b366;strokeWidth=3;" parent="1" vertex="1">
          <mxGeometry x="707" y="470" width="120" height="60" as="geometry" />
        </mxCell>
        <mxCell id="2TjgyCzb8Htl5xwf5OyU-28" style="edgeStyle=orthogonalEdgeStyle;rounded=0;orthogonalLoop=1;jettySize=auto;html=1;exitX=0.5;exitY=1;exitDx=0;exitDy=0;entryX=0.5;entryY=0;entryDx=0;entryDy=0;" parent="1" source="O-F3Ail7RcBTmuWhiVfL-26" target="O-F3Ail7RcBTmuWhiVfL-23" edge="1">
          <mxGeometry relative="1" as="geometry" />
        </mxCell>
        <mxCell id="2TjgyCzb8Htl5xwf5OyU-30" style="edgeStyle=orthogonalEdgeStyle;rounded=1;orthogonalLoop=1;jettySize=auto;html=1;exitX=1;exitY=0.5;exitDx=0;exitDy=0;entryX=0;entryY=0.367;entryDx=0;entryDy=0;entryPerimeter=0;" parent="1" source="O-F3Ail7RcBTmuWhiVfL-26" target="O-F3Ail7RcBTmuWhiVfL-28" edge="1">
          <mxGeometry relative="1" as="geometry" />
        </mxCell>
        <mxCell id="2TjgyCzb8Htl5xwf5OyU-32" style="edgeStyle=orthogonalEdgeStyle;rounded=1;orthogonalLoop=1;jettySize=auto;html=1;exitX=1;exitY=0.75;exitDx=0;exitDy=0;entryX=0;entryY=0.5;entryDx=0;entryDy=0;" parent="1" source="O-F3Ail7RcBTmuWhiVfL-26" target="O-F3Ail7RcBTmuWhiVfL-30" edge="1">
          <mxGeometry relative="1" as="geometry">
            <Array as="points">
              <mxPoint x="840" y="245" />
              <mxPoint x="840" y="500" />
            </Array>
          </mxGeometry>
        </mxCell>
        <mxCell id="O-F3Ail7RcBTmuWhiVfL-26" value="National Fire Regulations" style="rounded=1;whiteSpace=wrap;html=1;fillColor=#d5e8d4;strokeColor=#82b366;strokeWidth=3;" parent="1" vertex="1">
          <mxGeometry x="707" y="200" width="120" height="60" as="geometry" />
        </mxCell>
        <mxCell id="2TjgyCzb8Htl5xwf5OyU-35" style="edgeStyle=orthogonalEdgeStyle;rounded=1;orthogonalLoop=1;jettySize=auto;html=1;exitX=0.5;exitY=0;exitDx=0;exitDy=0;entryX=1;entryY=0.5;entryDx=0;entryDy=0;strokeWidth=1;" parent="1" source="2TjgyCzb8Htl5xwf5OyU-53" target="O-F3Ail7RcBTmuWhiVfL-33" edge="1">
          <mxGeometry relative="1" as="geometry" />
        </mxCell>
        <mxCell id="O-F3Ail7RcBTmuWhiVfL-27" value="Consumer market&lt;br&gt;roles" style="rounded=1;whiteSpace=wrap;html=1;arcSize=50;fillColor=none;strokeColor=none;fontStyle=1;fontSize=15;" parent="1" vertex="1">
          <mxGeometry x="900" y="120" width="120" height="50" as="geometry" />
        </mxCell>
        <mxCell id="2TjgyCzb8Htl5xwf5OyU-41" style="edgeStyle=orthogonalEdgeStyle;rounded=0;orthogonalLoop=1;jettySize=auto;html=1;exitX=0.5;exitY=0;exitDx=0;exitDy=0;entryX=0.5;entryY=1;entryDx=0;entryDy=0;dashed=1;" parent="1" source="O-F3Ail7RcBTmuWhiVfL-28" target="O-F3Ail7RcBTmuWhiVfL-31" edge="1">
          <mxGeometry relative="1" as="geometry" />
        </mxCell>
        <mxCell id="O-F3Ail7RcBTmuWhiVfL-28" value="Fire consultants&lt;br&gt;(High Fire&amp;nbsp;Expertise)" style="rounded=1;whiteSpace=wrap;html=1;fillColor=#fff2cc;strokeColor=#d6b656;" parent="1" vertex="1">
          <mxGeometry x="900" y="290" width="120" height="60" as="geometry" />
        </mxCell>
        <mxCell id="2TjgyCzb8Htl5xwf5OyU-40" style="edgeStyle=orthogonalEdgeStyle;rounded=0;orthogonalLoop=1;jettySize=auto;html=1;exitX=0.5;exitY=0;exitDx=0;exitDy=0;entryX=0.5;entryY=1;entryDx=0;entryDy=0;dashed=1;" parent="1" source="O-F3Ail7RcBTmuWhiVfL-29" target="O-F3Ail7RcBTmuWhiVfL-28" edge="1">
          <mxGeometry relative="1" as="geometry" />
        </mxCell>
        <mxCell id="O-F3Ail7RcBTmuWhiVfL-29" value="Developers and Planners&lt;br&gt;(Low Fire Expertise)" style="rounded=1;whiteSpace=wrap;html=1;fillColor=#fff2cc;strokeColor=#d6b656;" parent="1" vertex="1">
          <mxGeometry x="900" y="380" width="120" height="60" as="geometry" />
        </mxCell>
        <mxCell id="2TjgyCzb8Htl5xwf5OyU-42" style="edgeStyle=orthogonalEdgeStyle;rounded=0;orthogonalLoop=1;jettySize=auto;html=1;exitX=0.5;exitY=0;exitDx=0;exitDy=0;entryX=0.5;entryY=1;entryDx=0;entryDy=0;" parent="1" source="O-F3Ail7RcBTmuWhiVfL-30" target="O-F3Ail7RcBTmuWhiVfL-29" edge="1">
          <mxGeometry relative="1" as="geometry" />
        </mxCell>
        <mxCell id="O-F3Ail7RcBTmuWhiVfL-30" value="Regulators &amp;amp; Authorities&lt;br&gt;(Low-High Fire Expertise)" style="rounded=1;whiteSpace=wrap;html=1;fillColor=#fff2cc;strokeColor=#d6b656;" parent="1" vertex="1">
          <mxGeometry x="900" y="470" width="120" height="60" as="geometry" />
        </mxCell>
        <mxCell id="O-F3Ail7RcBTmuWhiVfL-31" value="Architects &amp;amp; &lt;br&gt;Building Designers&lt;br&gt;(Low Fire Expertise)&amp;nbsp;" style="rounded=1;whiteSpace=wrap;html=1;fillColor=#fff2cc;strokeColor=#d6b656;" parent="1" vertex="1">
          <mxGeometry x="900" y="200" width="120" height="60" as="geometry" />
        </mxCell>
        <mxCell id="O-F3Ail7RcBTmuWhiVfL-32" value="&lt;font style=&quot;font-size: 15px&quot;&gt;End User&lt;/font&gt;" style="rounded=1;whiteSpace=wrap;html=1;arcSize=50;fillColor=none;strokeColor=none;fontColor=#333333;fontStyle=1" parent="1" vertex="1">
          <mxGeometry x="707" y="-30" width="120" height="50" as="geometry" />
        </mxCell>
        <mxCell id="2TjgyCzb8Htl5xwf5OyU-62" style="edgeStyle=orthogonalEdgeStyle;rounded=1;jumpStyle=none;orthogonalLoop=1;jettySize=auto;html=1;exitX=0;exitY=0.5;exitDx=0;exitDy=0;entryX=0.5;entryY=0;entryDx=0;entryDy=0;strokeColor=default;strokeWidth=1;" parent="1" source="O-F3Ail7RcBTmuWhiVfL-33" target="2TjgyCzb8Htl5xwf5OyU-50" edge="1">
          <mxGeometry relative="1" as="geometry" />
        </mxCell>
        <mxCell id="O-F3Ail7RcBTmuWhiVfL-33" value="Building owner" style="rounded=1;whiteSpace=wrap;html=1;fillColor=#f5f5f5;strokeColor=#666666;fontColor=#333333;" parent="1" vertex="1">
          <mxGeometry x="707" y="20" width="120" height="40" as="geometry" />
        </mxCell>
        <mxCell id="O-F3Ail7RcBTmuWhiVfL-34" style="edgeStyle=orthogonalEdgeStyle;rounded=0;orthogonalLoop=1;jettySize=auto;html=1;exitX=0.5;exitY=1;exitDx=0;exitDy=0;" parent="1" source="O-F3Ail7RcBTmuWhiVfL-33" target="O-F3Ail7RcBTmuWhiVfL-33" edge="1">
          <mxGeometry relative="1" as="geometry" />
        </mxCell>
        <mxCell id="WZhK_iISjF4VqVoh4DxO-2" value="" style="endArrow=classic;html=1;fontSize=15;" edge="1" parent="1">
          <mxGeometry width="50" height="50" relative="1" as="geometry">
            <mxPoint x="1090" y="140" as="sourcePoint" />
            <mxPoint x="1090" y="100" as="targetPoint" />
          </mxGeometry>
        </mxCell>
        <mxCell id="WZhK_iISjF4VqVoh4DxO-4" value="Academic/&lt;br&gt;research tasks" style="text;html=1;strokeColor=none;fillColor=none;align=left;verticalAlign=middle;whiteSpace=wrap;rounded=0;dashed=1;fontSize=15;" vertex="1" parent="1">
          <mxGeometry x="1110" y="110" width="40" height="20" as="geometry" />
        </mxCell>
        <mxCell id="WZhK_iISjF4VqVoh4DxO-5" value="" style="endArrow=classic;html=1;fontSize=15;dashed=1;" edge="1" parent="1">
          <mxGeometry width="50" height="50" relative="1" as="geometry">
            <mxPoint x="1090" y="210" as="sourcePoint" />
            <mxPoint x="1090" y="170" as="targetPoint" />
          </mxGeometry>
        </mxCell>
        <mxCell id="WZhK_iISjF4VqVoh4DxO-6" value="Company/&lt;br&gt;commercial&lt;br&gt;tasks" style="text;html=1;strokeColor=none;fillColor=none;align=left;verticalAlign=middle;whiteSpace=wrap;rounded=0;dashed=1;fontSize=15;" vertex="1" parent="1">
          <mxGeometry x="1110" y="180" width="40" height="20" as="geometry" />
        </mxCell>
        <mxCell id="WZhK_iISjF4VqVoh4DxO-8" value="" style="rounded=1;whiteSpace=wrap;html=1;fillColor=#dae8fc;strokeColor=#6c8ebf;strokeWidth=3;" vertex="1" parent="1">
          <mxGeometry x="1080" y="240" width="20" height="20" as="geometry" />
        </mxCell>
        <mxCell id="WZhK_iISjF4VqVoh4DxO-9" value="FireBIM ITEA funding" style="text;html=1;strokeColor=none;fillColor=none;align=left;verticalAlign=middle;whiteSpace=wrap;rounded=0;dashed=1;fontSize=15;" vertex="1" parent="1">
          <mxGeometry x="1110" y="240" width="40" height="20" as="geometry" />
        </mxCell>
        <mxCell id="WZhK_iISjF4VqVoh4DxO-10" value="" style="rounded=1;whiteSpace=wrap;html=1;fillColor=#dae8fc;strokeColor=#6c8ebf;strokeWidth=2;dashed=1;" vertex="1" parent="1">
          <mxGeometry x="1080" y="300" width="20" height="20" as="geometry" />
        </mxCell>
        <mxCell id="WZhK_iISjF4VqVoh4DxO-11" value="FireBIM commercial funding" style="text;html=1;strokeColor=none;fillColor=none;align=left;verticalAlign=middle;whiteSpace=wrap;rounded=0;dashed=1;fontSize=15;" vertex="1" parent="1">
          <mxGeometry x="1110" y="300" width="40" height="20" as="geometry" />
        </mxCell>
      </root>
    </mxGraphModel>
  </diagram>
</mxfile>
